<?xml version="1.0" encoding="UTF-8" standalone="no"?><!DOCTYPE svg PUBLIC "-//W3C//DTD SVG 1.1//EN" "http://www.w3.org/Graphics/SVG/1.1/DTD/svg11.dtd"><svg width="100%" height="100%" viewBox="0 0 443 641" version="1.1" xmlns="http://www.w3.org/2000/svg" xmlns:xlink="http://www.w3.org/1999/xlink" xml:space="preserve" xmlns:serif="http://www.serif.com/" style="fill-rule:evenodd;clip-rule:evenodd;stroke-linejoin:round;stroke-miterlimit:1.41421;"><g id="reo"><g><g><path d="M321.438,93.701l0,401.019l17.579,0l0,-358.76l-17.579,-42.259Z" style="fill:#bba35f;fill-rule:nonzero;"/><path d="M351.185,165.212l0,329.508l17.579,0l0,-287.253l-17.579,-42.255Z" style="fill:#bba35f;fill-rule:nonzero;"/><path d="M380.932,236.72l0,258l17.579,0l0,-215.745l-17.579,-42.255Z" style="fill:#bba35f;fill-rule:nonzero;"/><path d="M121.423,93.701l0,401.019l-17.579,0l0,-358.76l17.579,-42.259Z" style="fill:#bba35f;fill-rule:nonzero;"/><path d="M91.676,165.212l0,329.508l-17.579,0l0,-287.253l17.579,-42.255Z" style="fill:#bba35f;fill-rule:nonzero;"/><path d="M61.929,236.72l0,258l-17.579,0l0,-215.745l17.579,-42.255Z" style="fill:#bba35f;fill-rule:nonzero;"/><path d="M29.792,305.545l0,189.175l-17.579,0l0,-146.92l17.579,-42.255Z" style="fill:#bba35f;fill-rule:nonzero;"/><path d="M412.295,305.545l0,189.175l17.579,0l0,-146.92l-17.579,-42.255Z" style="fill:#bba35f;fill-rule:nonzero;"/><path d="M306.741,72.065c-47.115,-58.939 -123.508,-58.939 -170.622,0l0,-27.098c47.114,-58.935 123.507,-58.935 170.622,0l0,27.098Z" style="fill:#bba35f;fill-rule:nonzero;"/><path d="M306.741,107.285c-43.188,-54.024 -127.431,-54.024 -170.622,0l0,-26.937c43.191,-54.032 127.434,-54.032 170.622,0l0,26.937Z" style="fill:#bba35f;fill-rule:nonzero;"/><path d="M306.741,142.505c-39.265,-49.116 -131.36,-49.116 -170.622,0l0,-26.781c39.262,-49.116 131.357,-49.116 170.622,0l0,26.781Z" style="fill:#bba35f;fill-rule:nonzero;"/><path d="M306.741,177.729c-35.335,-44.204 -135.287,-44.204 -170.622,0l0,-26.628c35.335,-44.2 135.287,-44.2 170.622,0l0,26.628Z" style="fill:#bba35f;fill-rule:nonzero;"/><path d="M306.741,212.949c-31.409,-39.288 -139.21,-39.288 -170.622,0l0,-26.467c31.412,-39.293 139.213,-39.293 170.622,0l0,26.467Z" style="fill:#bba35f;fill-rule:nonzero;"/><path d="M306.741,248.169c-27.486,-34.381 -143.137,-34.381 -170.622,0l0,-26.31c27.485,-34.381 143.136,-34.381 170.622,0l0,26.31Z" style="fill:#bba35f;fill-rule:nonzero;"/><path d="M306.741,283.394c-23.556,-29.47 -147.066,-29.47 -170.622,0l0,-26.158c23.556,-29.466 147.066,-29.466 170.622,0l0,26.158Z" style="fill:#bba35f;fill-rule:nonzero;"/><path d="M306.741,318.614c-19.63,-24.554 -150.99,-24.554 -170.622,0l0,-25.997c19.632,-24.558 150.992,-24.558 170.622,0l0,25.997Z" style="fill:#bba35f;fill-rule:nonzero;"/><path d="M306.741,353.834c-15.706,-19.647 -154.916,-19.647 -170.622,0l0,-25.84c15.706,-19.643 154.916,-19.643 170.622,0l0,25.84Z" style="fill:#bba35f;fill-rule:nonzero;"/><path d="M306.741,389.057c-11.777,-14.734 -158.846,-14.734 -170.622,0l0,-25.687c11.776,-14.735 158.845,-14.735 170.622,0l0,25.687Z" style="fill:#bba35f;fill-rule:nonzero;"/><path d="M306.741,424.277c-7.85,-9.819 -162.769,-9.819 -170.622,0l0,-25.526c7.853,-9.823 162.772,-9.823 170.622,0l0,25.526Z" style="fill:#bba35f;fill-rule:nonzero;"/><path d="M306.741,459.498c-3.927,-4.912 -166.695,-4.912 -170.622,0l0,-25.37c3.927,-4.908 166.695,-4.908 170.622,0l0,25.37Z" style="fill:#bba35f;fill-rule:nonzero;"/><path d="M306.741,489.001l-170.622,0l0,-17.99c3.927,-4.908 166.695,-4.908 170.622,0l0,17.99Z" style="fill:#bba35f;fill-rule:nonzero;"/><rect x="0.493" y="489.001" width="441.876" height="6" style="fill:#bba35f;"/><rect x="0.493" y="634.686" width="441.876" height="6" style="fill:#bba35f;"/></g><path d="M12.786,560.38c0,4.518 0.687,8.582 2.06,12.192c1.373,3.61 3.255,6.656 5.647,9.136c2.392,2.481 5.216,4.385 8.472,5.714c3.255,1.329 6.788,1.993 10.597,1.993c2.259,0 4.452,-0.442 6.578,-1.328c2.126,-0.886 4.097,-2.038 5.913,-3.455c1.816,-1.418 3.433,-3.012 4.85,-4.784c1.418,-1.772 2.592,-3.566 3.522,-5.382l4.584,2.924c-1.329,2.17 -2.901,4.263 -4.717,6.278c-1.816,2.016 -3.92,3.787 -6.312,5.316c-2.392,1.528 -5.094,2.757 -8.106,3.687c-3.012,0.93 -6.378,1.395 -10.099,1.395c-5.36,0 -10.243,-0.897 -14.651,-2.69c-4.407,-1.794 -8.172,-4.231 -11.295,-7.309c-3.122,-3.079 -5.536,-6.655 -7.242,-10.73c-1.705,-4.076 -2.558,-8.394 -2.558,-12.957c0,-4.562 0.875,-8.903 2.625,-13.022c1.749,-4.12 4.219,-7.741 7.408,-10.863c3.189,-3.123 7.01,-5.604 11.461,-7.442c4.452,-1.838 9.379,-2.757 14.783,-2.757c3.455,0 6.634,0.465 9.535,1.395c2.901,0.93 5.548,2.159 7.94,3.688c2.392,1.528 4.529,3.299 6.411,5.315c1.883,2.015 3.488,4.108 4.817,6.279l-4.717,3.122c-2.746,-5.271 -5.781,-9.113 -9.103,-11.527c-3.322,-2.414 -7.175,-3.621 -11.56,-3.621c-3.721,0 -7.221,0.675 -10.498,2.026c-3.278,1.351 -6.124,3.3 -8.538,5.847c-2.414,2.547 -4.319,5.637 -5.714,9.269c-1.395,3.632 -2.093,7.729 -2.093,12.291Z" style="fill:#bba35f;fill-rule:nonzero;"/><path d="M100.489,593.601c-3.853,0 -7.397,-0.664 -10.63,-1.993c-3.234,-1.329 -6.025,-3.145 -8.372,-5.448c-2.348,-2.303 -4.175,-4.994 -5.482,-8.073c-1.306,-3.078 -1.96,-6.367 -1.96,-9.866c0,-3.677 0.654,-7.132 1.96,-10.365c1.307,-3.234 3.134,-6.058 5.482,-8.472c2.347,-2.414 5.138,-4.318 8.372,-5.714c3.233,-1.395 6.777,-2.093 10.63,-2.093c3.765,0 7.265,0.643 10.498,1.927c3.234,1.285 6.013,3.034 8.338,5.249c2.326,2.215 4.153,4.806 5.482,7.774c1.329,2.968 1.993,6.157 1.993,9.567c0,3.81 -0.664,7.375 -1.993,10.698c-1.329,3.322 -3.156,6.234 -5.482,8.737c-2.325,2.502 -5.104,4.473 -8.338,5.913c-3.233,1.44 -6.733,2.159 -10.498,2.159Zm1.861,-3.654c1.949,0 3.731,-0.498 5.348,-1.495c1.617,-0.997 3.012,-2.348 4.186,-4.053c1.174,-1.705 2.093,-3.687 2.757,-5.946c0.665,-2.259 0.997,-4.651 0.997,-7.176c0,-3.632 -0.31,-7.021 -0.93,-10.166c-0.62,-3.145 -1.628,-5.891 -3.023,-8.239c-1.396,-2.347 -3.212,-4.196 -5.449,-5.547c-2.236,-1.351 -4.972,-2.027 -8.205,-2.027c-1.683,0 -3.3,0.487 -4.85,1.462c-1.551,0.974 -2.924,2.292 -4.12,3.953c-1.196,1.661 -2.148,3.599 -2.857,5.814c-0.708,2.215 -1.063,4.584 -1.063,7.109c0,3.632 0.388,7.043 1.163,10.232c0.775,3.189 1.893,5.98 3.355,8.372c1.462,2.392 3.256,4.274 5.382,5.647c2.126,1.373 4.562,2.06 7.309,2.06Z" style="fill:#bba35f;fill-rule:nonzero;"/><path d="M136.301,542.574l9.967,0l0,9.103c3.012,-3.367 6.146,-5.892 9.401,-7.575c3.256,-1.683 6.567,-2.525 9.933,-2.525c1.728,0 3.356,0.399 4.884,1.196c1.528,0.798 2.857,1.872 3.986,3.223c1.13,1.351 2.027,2.945 2.691,4.784c0.665,1.838 0.997,3.798 0.997,5.88l0,35.878l-9.9,0l0,-34.151c0,-3.322 -0.742,-5.836 -2.226,-7.541c-1.484,-1.705 -3.4,-2.558 -5.747,-2.558c-2.126,0 -4.43,0.664 -6.91,1.993c-2.481,1.329 -4.85,3.079 -7.109,5.249l0,37.008l-9.967,0l0,-49.964Z" style="fill:#bba35f;fill-rule:nonzero;"/><path d="M205.534,590.146c1.329,0 2.569,-0.21 3.721,-0.631c1.151,-0.421 2.137,-0.974 2.956,-1.661c0.82,-0.686 1.462,-1.473 1.927,-2.359c0.465,-0.885 0.698,-1.794 0.698,-2.724c0,-1.55 -0.388,-2.89 -1.163,-4.019c-0.775,-1.13 -1.783,-2.138 -3.023,-3.024c-1.24,-0.885 -2.658,-1.716 -4.252,-2.491c-1.595,-0.775 -3.234,-1.55 -4.917,-2.326c-1.683,-0.775 -3.322,-1.616 -4.917,-2.524c-1.594,-0.908 -3.012,-1.96 -4.252,-3.156c-1.24,-1.196 -2.248,-2.581 -3.023,-4.153c-0.775,-1.572 -1.163,-3.422 -1.163,-5.548c0,-1.993 0.421,-3.842 1.262,-5.548c0.842,-1.705 2.027,-3.178 3.555,-4.418c1.528,-1.24 3.333,-2.215 5.415,-2.924c2.082,-0.708 4.363,-1.063 6.844,-1.063c1.638,0 3.178,0.111 4.617,0.333c1.44,0.221 2.857,0.664 4.253,1.328c1.395,0.665 2.779,1.606 4.152,2.824c1.373,1.218 2.813,2.802 4.319,4.751l-3.654,3.255c-1.905,-3.056 -4.02,-5.348 -6.346,-6.876c-2.325,-1.528 -4.817,-2.293 -7.474,-2.293c-1.418,0 -2.713,0.178 -3.887,0.532c-1.174,0.354 -2.182,0.831 -3.023,1.428c-0.842,0.598 -1.495,1.296 -1.96,2.093c-0.465,0.798 -0.698,1.661 -0.698,2.592c0,1.993 0.72,3.654 2.159,4.983c1.44,1.329 3.234,2.525 5.382,3.588c2.148,1.063 4.485,2.104 7.01,3.122c2.525,1.019 4.861,2.193 7.009,3.522c2.149,1.329 3.943,2.923 5.382,4.784c1.44,1.86 2.16,4.185 2.16,6.976c0,2.126 -0.388,4.108 -1.163,5.947c-0.775,1.838 -1.96,3.432 -3.555,4.783c-1.594,1.351 -3.588,2.414 -5.98,3.19c-2.391,0.775 -5.182,1.162 -8.371,1.162c-1.462,0 -2.968,-0.11 -4.518,-0.332c-1.551,-0.221 -3.101,-0.664 -4.651,-1.329c-1.551,-0.664 -3.112,-1.605 -4.684,-2.824c-1.573,-1.218 -3.112,-2.801 -4.618,-4.75l4.053,-3.654c1.196,1.683 2.347,3.122 3.455,4.318c1.107,1.196 2.237,2.171 3.388,2.924c1.152,0.753 2.348,1.306 3.588,1.661c1.24,0.354 2.569,0.531 3.987,0.531Z" style="fill:#bba35f;fill-rule:nonzero;"/><path d="M261.212,586.16c-1.329,2.303 -3.101,4.119 -5.315,5.448c-2.215,1.329 -4.917,1.993 -8.106,1.993c-3.367,0 -5.836,-1.074 -7.409,-3.222c-1.572,-2.148 -2.358,-4.95 -2.358,-8.405l0,-35.214l-8.704,0l0,-2.459c2.79,0 5.094,-0.498 6.91,-1.494c1.816,-0.997 3.3,-2.359 4.451,-4.087c1.152,-1.727 2.049,-3.731 2.691,-6.013c0.643,-2.281 1.207,-4.684 1.695,-7.209l2.857,0l0,17.076l11.162,0l0,4.186l-11.162,0l0,35.214c0,1.506 0.509,2.779 1.528,3.82c1.019,1.041 2.303,1.562 3.853,1.562c1.108,0 2.115,-0.277 3.024,-0.831c0.908,-0.553 1.716,-1.229 2.425,-2.026l2.458,1.661Z" style="fill:#bba35f;fill-rule:nonzero;"/><path d="M304.001,592.538l-9.967,0l0,-6.843c-1.151,0.886 -2.292,1.805 -3.421,2.757c-1.13,0.952 -2.359,1.805 -3.688,2.558c-1.329,0.753 -2.791,1.373 -4.385,1.86c-1.595,0.488 -3.455,0.731 -5.581,0.731c-1.949,0 -3.71,-0.321 -5.282,-0.963c-1.573,-0.642 -2.913,-1.517 -4.02,-2.625c-1.107,-1.107 -1.96,-2.414 -2.558,-3.92c-0.598,-1.506 -0.897,-3.145 -0.897,-4.916c0,-2.171 0.432,-4.109 1.296,-5.814c0.863,-1.705 2.026,-3.245 3.488,-4.618c1.461,-1.373 3.167,-2.58 5.116,-3.621c1.949,-1.041 4.031,-1.982 6.245,-2.824c2.215,-0.841 4.496,-1.583 6.844,-2.225c2.347,-0.643 4.629,-1.252 6.843,-1.827l0,-3.123c0,-2.304 -0.221,-4.23 -0.664,-5.781c-0.443,-1.55 -1.085,-2.801 -1.927,-3.754c-0.842,-0.952 -1.86,-1.639 -3.056,-2.059c-1.196,-0.421 -2.525,-0.632 -3.987,-0.632c-1.683,0 -3.056,0.222 -4.119,0.665c-1.063,0.443 -1.894,1.019 -2.492,1.727c-0.598,0.709 -1.007,1.517 -1.229,2.425c-0.221,0.909 -0.332,1.828 -0.332,2.758c0,0.886 -0.067,1.727 -0.199,2.525c-0.133,0.797 -0.388,1.495 -0.765,2.093c-0.376,0.598 -0.885,1.085 -1.528,1.461c-0.642,0.377 -1.45,0.565 -2.425,0.565c-1.55,0 -2.801,-0.554 -3.754,-1.661c-0.952,-1.107 -1.428,-2.503 -1.428,-4.186c0,-1.639 0.542,-3.178 1.628,-4.618c1.085,-1.439 2.546,-2.679 4.385,-3.72c1.838,-1.041 3.975,-1.861 6.411,-2.459c2.437,-0.598 5.006,-0.897 7.708,-0.897c3.277,0 6.046,0.31 8.305,0.931c2.259,0.62 4.086,1.517 5.481,2.69c1.396,1.174 2.403,2.57 3.023,4.186c0.62,1.617 0.931,3.422 0.931,5.415l0,37.739Zm-9.967,-29.101c-2.126,0.664 -4.363,1.495 -6.71,2.491c-2.348,0.997 -4.496,2.138 -6.445,3.422c-1.949,1.285 -3.566,2.691 -4.85,4.219c-1.285,1.528 -1.927,3.178 -1.927,4.95c0,1.24 0.221,2.403 0.664,3.488c0.443,1.085 1.041,2.038 1.794,2.857c0.753,0.82 1.617,1.473 2.591,1.96c0.975,0.487 1.994,0.731 3.057,0.731c2.214,0 4.252,-0.542 6.112,-1.628c1.861,-1.085 3.765,-2.358 5.714,-3.82l0,-18.67Z" style="fill:#bba35f;fill-rule:nonzero;"/><path d="M317.222,542.574l9.967,0l0,9.103c3.012,-3.367 6.146,-5.892 9.401,-7.575c3.256,-1.683 6.567,-2.525 9.933,-2.525c1.728,0 3.356,0.399 4.884,1.196c1.528,0.798 2.857,1.872 3.986,3.223c1.13,1.351 2.027,2.945 2.691,4.784c0.665,1.838 0.997,3.798 0.997,5.88l0,35.878l-9.9,0l0,-34.151c0,-3.322 -0.742,-5.836 -2.226,-7.541c-1.484,-1.705 -3.399,-2.558 -5.747,-2.558c-2.126,0 -4.429,0.664 -6.91,1.993c-2.48,1.329 -4.85,3.079 -7.109,5.249l0,37.008l-9.967,0l0,-49.964Z" style="fill:#bba35f;fill-rule:nonzero;"/><path d="M397.086,586.16c-1.329,2.303 -3.101,4.119 -5.316,5.448c-2.215,1.329 -4.916,1.993 -8.106,1.993c-3.366,0 -5.836,-1.074 -7.408,-3.222c-1.572,-2.148 -2.359,-4.95 -2.359,-8.405l0,-35.214l-8.704,0l0,-2.459c2.791,0 5.094,-0.498 6.91,-1.494c1.817,-0.997 3.3,-2.359 4.452,-4.087c1.152,-1.727 2.049,-3.731 2.691,-6.013c0.642,-2.281 1.207,-4.684 1.694,-7.209l2.857,0l0,17.076l11.162,0l0,4.186l-11.162,0l0,35.214c0,1.506 0.51,2.779 1.528,3.82c1.019,1.041 2.304,1.562 3.854,1.562c1.107,0 2.115,-0.277 3.023,-0.831c0.908,-0.553 1.716,-1.229 2.425,-2.026l2.459,1.661Z" style="fill:#bba35f;fill-rule:nonzero;"/><path d="M439.874,592.538l-9.966,0l0,-6.843c-1.152,0.886 -2.292,1.805 -3.422,2.757c-1.129,0.952 -2.359,1.805 -3.687,2.558c-1.329,0.753 -2.791,1.373 -4.386,1.86c-1.594,0.488 -3.455,0.731 -5.581,0.731c-1.949,0 -3.709,-0.321 -5.282,-0.963c-1.572,-0.642 -2.912,-1.517 -4.02,-2.625c-1.107,-1.107 -1.96,-2.414 -2.558,-3.92c-0.598,-1.506 -0.897,-3.145 -0.897,-4.916c0,-2.171 0.432,-4.109 1.296,-5.814c0.864,-1.705 2.027,-3.245 3.488,-4.618c1.462,-1.373 3.167,-2.58 5.116,-3.621c1.949,-1.041 4.031,-1.982 6.246,-2.824c2.215,-0.841 4.496,-1.583 6.843,-2.225c2.348,-0.643 4.629,-1.252 6.844,-1.827l0,-3.123c0,-2.304 -0.222,-4.23 -0.665,-5.781c-0.443,-1.55 -1.085,-2.801 -1.926,-3.754c-0.842,-0.952 -1.861,-1.639 -3.057,-2.059c-1.196,-0.421 -2.525,-0.632 -3.986,-0.632c-1.683,0 -3.057,0.222 -4.12,0.665c-1.063,0.443 -1.893,1.019 -2.491,1.727c-0.598,0.709 -1.008,1.517 -1.229,2.425c-0.222,0.909 -0.333,1.828 -0.333,2.758c0,0.886 -0.066,1.727 -0.199,2.525c-0.133,0.797 -0.387,1.495 -0.764,2.093c-0.377,0.598 -0.886,1.085 -1.528,1.461c-0.642,0.377 -1.451,0.565 -2.425,0.565c-1.551,0 -2.802,-0.554 -3.754,-1.661c-0.953,-1.107 -1.429,-2.503 -1.429,-4.186c0,-1.639 0.543,-3.178 1.628,-4.618c1.085,-1.439 2.547,-2.679 4.385,-3.72c1.838,-1.041 3.976,-1.861 6.412,-2.459c2.436,-0.598 5.005,-0.897 7.707,-0.897c3.278,0 6.046,0.31 8.305,0.931c2.259,0.62 4.087,1.517 5.482,2.69c1.395,1.174 2.403,2.57 3.023,4.186c0.62,1.617 0.93,3.422 0.93,5.415l0,37.739Zm-9.966,-29.101c-2.126,0.664 -4.363,1.495 -6.711,2.491c-2.347,0.997 -4.496,2.138 -6.445,3.422c-1.949,1.285 -3.565,2.691 -4.85,4.219c-1.284,1.528 -1.927,3.178 -1.927,4.95c0,1.24 0.222,2.403 0.665,3.488c0.443,1.085 1.041,2.038 1.794,2.857c0.753,0.82 1.616,1.473 2.591,1.96c0.974,0.487 1.993,0.731 3.056,0.731c2.215,0 4.252,-0.542 6.113,-1.628c1.86,-1.085 3.765,-2.358 5.714,-3.82l0,-18.67Z" style="fill:#bba35f;fill-rule:nonzero;"/></g></g></svg>