<svg viewBox="0 0 53 60" xmlns="http://www.w3.org/2000/svg" fill-rule="evenodd" clip-rule="evenodd" stroke-linejoin="round" stroke-miterlimit="1.414"><path d="M.363 26.688c0 14.41 11.682 33.252 26.094 33.252 14.413 0 26.095-18.842 26.095-33.252H.363z" fill="#212121" fill-rule="nonzero" opacity=".2"/><path d="M.363 26.688C.363 12.275 12.045.594 26.457.594c14.413 0 26.095 11.681 26.095 26.094 0 14.41-11.682 26.094-26.095 26.094C12.045 52.782.363 41.098.363 26.688" fill="#37474f" fill-rule="nonzero"/><clipPath id="a"><path d="M.363 26.688C.363 12.275 12.045.594 26.457.594c14.413 0 26.095 11.681 26.095 26.094 0 14.41-11.682 26.094-26.095 26.094C12.045 52.782.363 41.098.363 26.688" clip-rule="nonzero"/></clipPath><g clip-path="url(#a)"><circle cx="26.457" cy="26.688" r="18.452" fill="#303030"/><clipPath id="b"><circle cx="26.457" cy="26.688" r="18.452"/></clipPath><g clip-path="url(#b)"><path fill="#c4202a" d="M.673 8.236h63.263V45.14H.673z"/><path fill="#fff" fill-rule="nonzero" d="M.673 8.236h63.263v18.448H.673z"/><path d="M.673 8.236V45.14l27.679-18.455L.673 8.236z" fill="#26467d" fill-rule="nonzero"/></g></g></svg>