<svg viewBox="0 0 53 60" xmlns="http://www.w3.org/2000/svg" fill-rule="evenodd" clip-rule="evenodd" stroke-linejoin="round" stroke-miterlimit="1.414"><path d="M.54 26.688c0 14.41 11.681 33.252 26.094 33.252 14.413 0 26.094-18.842 26.094-33.252H.54z" fill="#212121" fill-rule="nonzero" opacity=".2"/><path d="M.54 26.688C.54 12.275 12.221.594 26.634.594c14.413 0 26.094 11.681 26.094 26.094 0 14.41-11.681 26.094-26.094 26.094C12.221 52.782.54 41.098.54 26.688" fill="#37474f" fill-rule="nonzero"/><clipPath id="a"><path d="M.54 26.688C.54 12.275 12.221.594 26.634.594c14.413 0 26.094 11.681 26.094 26.094 0 14.41-11.681 26.094-26.094 26.094C12.221 52.782.54 41.098.54 26.688" clip-rule="nonzero"/></clipPath><g clip-path="url(#a)"><circle cx="26.634" cy="26.688" r="18.452" fill="#303030"/><clipPath id="b"><circle cx="26.634" cy="26.688" r="18.452"/></clipPath><g clip-path="url(#b)"><clipPath id="c"><path d="M8.183 8.236h62.742v36.903H8.183z"/></clipPath><g clip-path="url(#c)" fill-rule="nonzero"><path fill="#bc1f33" d="M8.183 8.236h18.296v36.903H8.183z"/><path fill="#3f9c46" d="M26.479 8.236h44.446v12.302H26.479z"/><path fill="#fff" d="M26.479 20.539h44.446v12.3H26.479z"/><path fill="#030404" d="M26.479 32.839h44.446v12.3H26.479z"/></g></g></g></svg>