<svg viewBox="0 0 53 60" xmlns="http://www.w3.org/2000/svg" fill-rule="evenodd" clip-rule="evenodd" stroke-linejoin="round" stroke-miterlimit="1.414"><path d="M.656 26.688c0 14.41 11.681 33.252 26.094 33.252 14.413 0 26.094-18.842 26.094-33.252H.656z" fill="#212121" fill-rule="nonzero" opacity=".2"/><path d="M.656 26.688C.656 12.275 12.337.594 26.75.594c14.413 0 26.094 11.681 26.094 26.094 0 14.41-11.681 26.094-26.094 26.094C12.337 52.782.656 41.098.656 26.688" fill="#37474f" fill-rule="nonzero"/><clipPath id="a"><path d="M.656 26.688C.656 12.275 12.337.594 26.75.594c14.413 0 26.094 11.681 26.094 26.094 0 14.41-11.681 26.094-26.094 26.094C12.337 52.782.656 41.098.656 26.688" clip-rule="nonzero"/></clipPath><g clip-path="url(#a)"><circle cx="26.75" cy="26.688" r="18.452" fill="#303030"/><clipPath id="b"><circle cx="26.75" cy="26.688" r="18.452"/></clipPath><g clip-path="url(#b)"><path fill="#fff" d="M-4.881 8.236h63.262v36.903H-4.881z"/><path d="M37.477 21.58L58.381 9.878V8.236h-1.44L33.106 21.58h4.371zM36.491 32.537l21.89 12.25v-2.448l-17.517-9.802h-4.373zM-4.881 11.047L13.844 21.58h4.377L-4.881 8.597v2.45zM17.227 32.537L-4.881 44.925v.215h3.994l22.493-12.603h-4.379z" fill="#bd1f37" fill-rule="nonzero"/><path d="M54.051 8.236h-22.15v12.407l22.15-12.407zM22.122 8.236H.061l22.061 12.407V8.236zM58.381 21.58v-8.467L43.356 21.58h15.025zM58.381 40.912v-8.375H43.356l15.025 8.375zM1.313 45.14h20.809V33.478L1.313 45.14zM31.901 45.14h20.878L31.901 33.478V45.14zM-4.881 32.537v8.754l15.549-8.754H-4.881zM-4.881 21.58h15.549l-15.549-8.767v8.767z" fill="#2c2f77" fill-rule="nonzero"/><path d="M24.079 8.236v15.536h-28.96v6.578h28.96v14.79h5.866V30.35h28.436v-6.578H29.945V8.236h-5.866z" fill="#bd1f37" fill-rule="nonzero"/></g></g></svg>