<svg xmlns="http://www.w3.org/2000/svg" viewBox="0 0 50 50" fill="#A9892A"><path d="M0 7v36h50V7zm2 2h46v2.5c-.39.34-17.926 15.637-19.563 17.063l-.093.093C27.047 29.786 25.719 30 25 30c-.715 0-2.047-.215-3.344-1.344-.37-.324-3.043-2.633-4.968-4.312A10594.529 10594.529 0 0 1 2 11.5zm0 5.156c1.734 1.512 7.887 6.867 13.125 11.438L2 35.969zm46 0V35.97L34.875 25.594c5.238-4.57 11.39-9.926 13.125-11.438zM16.656 26.937l3.688 3.22.031.03C22.066 31.642 23.863 32 25 32c1.145 0 2.957-.363 4.656-1.844.282-.242 2.492-2.148 3.719-3.218L48 38.5V41H2v-2.5z"/></svg>