<svg viewBox="0 0 53 60" xmlns="http://www.w3.org/2000/svg" fill-rule="evenodd" clip-rule="evenodd" stroke-linejoin="round" stroke-miterlimit="1.414"><path d="M.765 26.688c0 14.41 11.682 33.252 26.094 33.252 14.413 0 26.094-18.842 26.094-33.252H.765z" fill="#212121" fill-rule="nonzero" opacity=".2"/><path d="M.765 26.688C.765 12.275 12.447.594 26.859.594c14.413 0 26.094 11.681 26.094 26.094 0 14.41-11.681 26.094-26.094 26.094C12.447 52.782.765 41.098.765 26.688" fill="#37474f" fill-rule="nonzero"/><clipPath id="a"><path d="M.765 26.688C.765 12.275 12.447.594 26.859.594c14.413 0 26.094 11.681 26.094 26.094 0 14.41-11.681 26.094-26.094 26.094C12.447 52.782.765 41.098.765 26.688" clip-rule="nonzero"/></clipPath><g clip-path="url(#a)"><circle cx="26.859" cy="26.688" r="18.452" fill="#303030"/><clipPath id="b"><circle cx="26.859" cy="26.688" r="18.452"/></clipPath><g clip-path="url(#b)"><path fill="#5072b7" d="M5.333 8.236h63.263V45.14H5.333z"/><path fill="#f2dd2f" fill-rule="nonzero" d="M5.333 26.69h63.263v18.45H5.333z"/></g></g></svg>